<svg xmlns="http://www.w3.org/2000/svg" width="340" height="340" viewBox="0 0 340 340" version="1.1">
	<path d="M 121.967 6.826 C 120.082 8.352, 119.824 9.246, 120.393 12.280 C 120.767 14.275, 122.531 18.074, 124.312 20.721 L 127.551 25.534 117.526 25.186 C 105.408 24.765, 100.007 26.188, 98.607 30.173 C 97.298 33.898, 99.678 37.189, 107.193 42.046 C 112.158 45.256, 112.916 46.084, 111.378 46.625 C 81.080 57.276, 61.890 68.967, 41.934 88.930 C 20.185 110.685, 8.326 131.962, 2.321 160 C -0.232 171.916, -0.194 199.070, 2.391 211 C 13.854 263.896, 56.172 306.799, 114.249 324.403 C 137.995 331.601, 153.898 333.494, 178.622 332.069 C 204.379 330.585, 223.998 326.224, 244.787 317.365 C 290.561 297.857, 324.026 261.413, 335.571 218.500 C 336.903 213.550, 338.281 206.688, 338.634 203.250 C 338.987 199.813, 339.664 197, 340.138 197 C 340.612 197, 340.968 191.037, 340.930 183.750 C 340.891 176.463, 340.543 171.302, 340.155 172.283 C 339.722 173.380, 338.966 170.502, 338.189 164.801 C 334.750 139.546, 320.470 111.748, 300.091 90.636 C 282.097 71.996, 254.086 54.618, 231.250 47.928 C 228.912 47.244, 227 46.410, 227 46.075 C 227 45.741, 229.453 44, 232.451 42.207 C 248.514 32.599, 243.507 24.305, 222.163 25.163 L 212.233 25.561 214.498 22.531 C 220.190 14.916, 221.369 9.549, 218.015 6.514 C 212.104 1.164, 189.940 10.755, 175.190 25.045 L 169.880 30.190 164.108 24.684 C 152.859 13.955, 136.167 5, 127.417 5 C 125.659 5, 123.207 5.822, 121.967 6.826 M 0.392 185 C 0.392 192.425, 0.549 195.463, 0.742 191.750 C 0.934 188.037, 0.934 181.963, 0.742 178.250 C 0.549 174.537, 0.392 177.575, 0.392 185 M 105.473 195.250 L 98.500 202.500 105.750 195.527 C 109.737 191.692, 113 188.429, 113 188.277 C 113 187.543, 111.950 188.516, 105.473 195.250 M 112.473 195.250 L 105.500 202.500 112.750 195.527 C 116.737 191.692, 120 188.429, 120 188.277 C 120 187.543, 118.950 188.516, 112.473 195.250 M 119.473 195.250 L 112.500 202.500 119.750 195.527 C 123.737 191.692, 127 188.429, 127 188.277 C 127 187.543, 125.950 188.516, 119.473 195.250 M 134.473 195.250 L 127.500 202.500 134.750 195.527 C 141.484 189.050, 142.457 188, 141.723 188 C 141.571 188, 138.308 191.262, 134.473 195.250" stroke="none" fill="black" fill-rule="evenodd"/>
</svg>